<svg width="42" height="41" viewBox="0 0 42 41" fill="none" xmlns="http://www.w3.org/2000/svg">
<g clip-path="url(#clip0_650_1574)">
<path fill-rule="evenodd" clip-rule="evenodd" d="M20.7737 0C15.313 0 14.6294 0.0227865 12.4848 0.120635C10.3442 0.218483 8.88185 0.55894 7.60312 1.05622C6.26273 1.56021 5.047 2.35103 4.04171 3.37509C3.0193 4.37922 2.22799 5.59409 1.72285 6.93515C1.22825 8.21388 0.886451 9.67758 0.788603 11.8182C0.692096 13.9614 0.667969 14.6437 0.667969 20.1058C0.667969 25.5678 0.690755 26.2501 0.788603 28.3947C0.886451 30.5353 1.22691 31.9977 1.72419 33.2763C2.22818 34.6167 3.019 35.8325 4.04306 36.8378C5.04721 37.8601 6.26207 38.6514 7.60312 39.1567C8.88185 39.6526 10.3442 39.9931 12.4848 40.0909C14.6294 40.1887 15.313 40.2115 20.7737 40.2115C26.2344 40.2115 26.9181 40.1887 29.0627 40.0909C31.2033 39.9931 32.6656 39.6526 33.9443 39.1553C35.2847 38.6513 36.5005 37.8605 37.5057 36.8364C38.5282 35.8323 39.3195 34.6175 39.8247 33.2763C40.3205 31.9977 40.6611 30.5353 40.7588 28.3947C40.8567 26.2501 40.8795 25.5664 40.8795 20.1058C40.8795 14.645 40.8567 13.9614 40.7588 11.8168C40.6611 9.67623 40.3205 8.21388 39.8233 6.93515C39.3186 5.59351 38.5272 4.37813 37.5044 3.37374C36.5003 2.35133 35.2854 1.56002 33.9443 1.05488C32.6656 0.560281 31.2019 0.218483 29.0613 0.120635C26.9181 0.0241269 26.2358 0 20.7737 0ZM20.7737 3.62306C26.142 3.62306 26.7787 3.64317 28.8991 3.73967C30.8588 3.82947 31.923 4.15519 32.6321 4.43265C33.5704 4.7959 34.2406 5.23286 34.9443 5.93522C35.648 6.63892 36.0837 7.30911 36.4469 8.24738C36.7229 8.95645 37.05 10.0207 37.1398 11.9803C37.2363 14.1008 37.2565 14.7375 37.2565 20.1058C37.2565 25.474 37.2363 26.1107 37.1398 28.2311C37.05 30.1908 36.7243 31.255 36.4469 31.9641C36.1251 32.8374 35.6116 33.6276 34.9443 34.2763C34.2956 34.9438 33.5055 35.4572 32.6321 35.7789C31.923 36.055 30.8588 36.382 28.8991 36.4718C26.7787 36.5683 26.1433 36.5885 20.7737 36.5885C15.4041 36.5885 14.7688 36.5683 12.6483 36.4718C10.6887 36.382 9.62442 36.0563 8.91535 35.7789C8.04204 35.4571 7.25195 34.9437 6.60319 34.2763C5.93591 33.6275 5.42249 32.8374 5.10062 31.9641C4.8245 31.255 4.49744 30.1908 4.40764 28.2311C4.31113 26.1107 4.29103 25.474 4.29103 20.1058C4.29103 14.7375 4.31113 14.1008 4.40764 11.9803C4.49744 10.0207 4.82316 8.95645 5.10062 8.24738C5.46387 7.30911 5.90083 6.63892 6.60319 5.93522C7.25185 5.26777 8.04198 4.75431 8.91535 4.43265C9.62442 4.15653 10.6887 3.82947 12.6483 3.73967C14.7688 3.64317 15.4055 3.62306 20.7737 3.62306Z" fill="#404040"/>
<path fill-rule="evenodd" clip-rule="evenodd" d="M20.7739 26.8141C19.8929 26.8141 19.0204 26.6406 18.2065 26.3034C17.3926 25.9663 16.653 25.4722 16.0301 24.8492C15.4072 24.2263 14.913 23.4867 14.5758 22.6728C14.2388 21.8588 14.0652 20.9865 14.0652 20.1055C14.0652 19.2245 14.2388 18.3521 14.5758 17.5382C14.913 16.7242 15.4072 15.9848 16.0301 15.3618C16.653 14.7388 17.3926 14.2447 18.2065 13.9075C19.0204 13.5704 19.8929 13.3968 20.7739 13.3968C22.553 13.3968 24.2594 14.1037 25.5176 15.3618C26.7756 16.6198 27.4824 18.3263 27.4824 20.1055C27.4824 21.8848 26.7756 23.5911 25.5176 24.8492C24.2594 26.1073 22.553 26.8141 20.7739 26.8141ZM20.7739 9.77113C18.0329 9.77113 15.4044 10.86 13.4663 12.798C11.5282 14.7361 10.4395 17.3647 10.4395 20.1055C10.4395 22.8464 11.5282 25.4749 13.4663 27.413C15.4044 29.3511 18.0329 30.4399 20.7739 30.4399C23.5146 30.4399 26.1433 29.3511 28.0813 27.413C30.0194 25.4749 31.1082 22.8464 31.1082 20.1055C31.1082 17.3647 30.0194 14.7361 28.0813 12.798C26.1433 10.86 23.5146 9.77113 20.7739 9.77113ZM34.1146 9.58348C34.1146 10.2314 33.8573 10.8527 33.3992 11.3109C32.9411 11.7689 32.3197 12.0264 31.6719 12.0264C31.024 12.0264 30.4025 11.7689 29.9445 11.3109C29.4863 10.8527 29.229 10.2314 29.229 9.58348C29.229 8.93559 29.4863 8.31424 29.9445 7.85612C30.4025 7.398 31.024 7.14062 31.6719 7.14062C32.3197 7.14062 32.9411 7.398 33.3992 7.85612C33.8573 8.31424 34.1146 8.93559 34.1146 9.58348Z" fill="#404040"/>
</g>
<defs>
<clipPath id="clip0_650_1574">
<rect width="41" height="41" fill="white" transform="translate(0.667969)"/>
</clipPath>
</defs>
</svg>
