<svg width="42" height="39" viewBox="0 0 42 39" fill="none" xmlns="http://www.w3.org/2000/svg">
<g clip-path="url(#clip0_650_1572)">
<path d="M40.8138 2.84656V35.8667C40.8138 36.6216 40.5028 37.3457 39.9492 37.8796C39.3957 38.4133 38.6448 38.7132 37.8619 38.7132H3.61987C2.83697 38.7132 2.08615 38.4133 1.53256 37.8796C0.978972 37.3457 0.667969 36.6216 0.667969 35.8667V2.84656C0.667969 2.0916 0.978972 1.36757 1.53256 0.833739C2.08615 0.299904 2.83697 0 3.61987 0H37.8619C38.6448 0 39.3957 0.299904 39.9492 0.833739C40.5028 1.36757 40.8138 2.0916 40.8138 2.84656ZM12.4755 14.8021H6.57176V33.0201H12.4755V14.8021ZM13.0069 8.53968C13.01 8.10904 12.9251 7.68204 12.7572 7.28303C12.5891 6.88403 12.3412 6.52085 12.0276 6.21421C11.714 5.90759 11.3409 5.66355 10.9295 5.49598C10.5181 5.32843 10.0765 5.24065 9.62993 5.23768H9.52367C8.61551 5.23768 7.74456 5.58556 7.10239 6.20481C6.46023 6.82406 6.09947 7.66394 6.09947 8.53968C6.09947 9.41544 6.46023 10.2553 7.10239 10.8746C7.74456 11.4938 8.61551 11.8417 9.52367 11.8417C9.97028 11.8523 10.4147 11.7779 10.8315 11.6228C11.2482 11.4678 11.6293 11.235 11.9527 10.9379C12.2762 10.6407 12.5358 10.2851 12.7167 9.89116C12.8976 9.49726 12.9962 9.07283 13.0069 8.64216V8.53968ZM34.91 21.9526C34.91 16.4759 31.2969 14.3467 27.7074 14.3467C26.5321 14.2899 25.3619 14.5313 24.3136 15.0468C23.2652 15.5623 22.3754 16.3338 21.7327 17.2843H21.5674V14.8021H16.0178V33.0201H21.9217V23.3304C21.8363 22.3381 22.1605 21.3533 22.8237 20.59C23.487 19.8268 24.4358 19.3468 25.464 19.2542H25.6882C27.5657 19.2542 28.959 20.3928 28.959 23.2621V33.0201H34.8628L34.91 21.9526Z" fill="#404040"/>
</g>
<defs>
<clipPath id="clip0_650_1572">
<rect width="41" height="39" fill="white" transform="translate(0.667969)"/>
</clipPath>
</defs>
</svg>
