<svg width="41" height="134" viewBox="0 0 41 134" fill="none" xmlns="http://www.w3.org/2000/svg">
<path d="M0.842811 125.473C0.440193 125.851 0.420272 126.484 0.798316 126.886L6.9589 133.447C7.33694 133.85 7.9698 133.87 8.37241 133.492C8.77503 133.114 8.79495 132.481 8.41691 132.078L2.94083 126.246L8.77287 120.77C9.17548 120.392 9.19541 119.759 8.81736 119.357C8.43932 118.954 7.80647 118.934 7.40385 119.312L0.842811 125.473ZM1.49586 127.201C14.0104 127.595 23.5688 122.731 30.0567 114.44C36.5158 106.186 39.8756 94.6135 40.2254 81.6281C40.9248 55.659 29.6005 23.6873 6.18002 0.201956L4.76385 1.61421C27.8014 24.7156 38.9106 56.159 38.2261 81.5743C37.8839 94.281 34.5974 105.393 28.4817 113.208C22.3948 120.986 13.4501 125.577 1.55878 125.202L1.49586 127.201Z" fill="#FFD53E"/>
</svg>
