<svg width="39" height="128" viewBox="0 0 39 128" fill="none" xmlns="http://www.w3.org/2000/svg">
<path d="M37.8825 127.553C38.4345 127.537 38.8686 127.076 38.8519 126.524L38.5812 117.528C38.5646 116.976 38.1036 116.542 37.5516 116.558C36.9995 116.575 36.5655 117.036 36.5821 117.588L36.8228 125.584L28.8264 125.825C28.2743 125.841 27.8403 126.302 27.8569 126.854C27.8735 127.406 28.3345 127.841 28.8865 127.824L37.8825 127.553ZM37.8528 0.197751C25.3321 0.197773 15.9314 5.36001 9.70753 13.851C3.5114 22.3042 0.517344 33.9771 0.576365 46.9671C0.694394 72.9453 13.0191 104.545 37.1669 127.282L38.5379 125.826C14.7849 103.461 2.69186 72.3822 2.57634 46.958C2.51859 34.2467 5.45379 23.0373 11.3206 15.0334C17.1597 7.06731 25.9556 2.19777 37.8528 2.19775L37.8528 0.197751Z" fill="#FFD53E"/>
</svg>
