<svg width="110" height="40" viewBox="0 0 110 40" fill="none" xmlns="http://www.w3.org/2000/svg">
<path d="M105.936 8.40858C104.153 8.62326 102.859 10.2361 102.859 12.0307V36.3339C102.859 38.1339 104.153 39.7413 105.936 39.956C108.078 40.2147 109.894 38.5523 109.894 36.466V11.893C109.894 9.80677 108.078 8.14435 105.936 8.40307V8.40858Z" fill="white"/>
<path d="M108.842 5.97533C110.224 4.59641 110.241 2.3745 108.882 1.01255C107.522 -0.349414 105.3 -0.335669 103.919 1.04325C102.537 2.42215 102.52 4.64408 103.879 6.00605C105.239 7.36797 107.461 7.35426 108.842 5.97533Z" fill="#1773BA"/>
<path d="M7.13692 36.4711V23.1333C7.13692 17.8543 9.55348 15.1459 13.3682 15.1459C17.183 15.1459 19.4289 17.6836 19.6491 22.4287C19.6436 22.6654 19.6271 22.891 19.6271 23.1388V36.3225C19.6271 38.1335 20.9262 39.7519 22.7262 39.9721C24.8785 40.2363 26.7116 38.5574 26.7116 36.4601V23.1443C26.7116 22.8965 26.6951 22.6709 26.6841 22.4287C26.8988 17.6286 29.2603 15.157 32.8934 15.157C36.5265 15.157 39.1962 17.9423 39.1962 23.1443V36.4821C39.1962 38.4253 40.7706 39.9996 42.7137 39.9996C44.6569 39.9996 46.2312 38.4253 46.2312 36.4821V23.1443C46.2312 18.2341 44.9101 14.4964 42.2734 12.0743C39.6366 9.65777 36.4824 8.4082 32.8934 8.4082C29.3043 8.4082 26.1501 9.65226 23.5134 12.0743C23.3813 12.2009 23.2657 12.3441 23.1391 12.4762C23.0069 12.3441 22.8913 12.2009 22.7537 12.0743C20.117 9.65777 16.9628 8.4082 13.3737 8.4082C9.78467 8.4082 6.63049 9.65226 3.99374 12.0743C1.42855 14.4909 0.107422 18.157 0.107422 23.1443V36.4766C0.107422 34.539 1.68176 32.9646 3.62492 32.9646C5.56808 32.9646 7.14242 34.539 7.14242 36.4821" fill="white"/>
<path d="M6.08246 38.9406C7.46375 37.5618 7.48137 35.3399 6.12182 33.9779C4.76221 32.6159 2.54028 32.6297 1.15896 34.0085C-0.22236 35.3875 -0.239986 37.6094 1.1196 38.9714C2.47918 40.3333 4.70111 40.3196 6.08246 38.9406Z" fill="#F4BC45"/>
<path d="M58.3303 36.4711V23.1333C58.3303 17.8543 60.7469 15.1459 64.5616 15.1459C68.3764 15.1459 70.6223 17.6836 70.8425 22.4287C70.837 22.6654 70.8205 22.891 70.8205 23.1388V36.3225C70.8205 38.1335 72.1196 39.7519 73.9196 39.9721C76.0719 40.2363 77.905 38.5574 77.905 36.4601V23.1443C77.905 22.8965 77.8885 22.6709 77.8775 22.4287C78.0922 17.6286 80.4537 15.157 84.0868 15.157C87.7199 15.157 90.3897 17.9423 90.3897 23.1443V36.4821C90.3897 38.4253 91.964 39.9996 93.9072 39.9996C95.8503 39.9996 97.4246 38.4253 97.4246 36.4821V23.1443C97.4246 18.2341 96.1035 14.4964 93.4668 12.0743C90.83 9.65777 87.6758 8.4082 84.0868 8.4082C80.4977 8.4082 77.3435 9.65226 74.7068 12.0743C74.5747 12.2009 74.4591 12.3441 74.3325 12.4762C74.2003 12.3441 74.0848 12.2009 73.9471 12.0743C71.3104 9.65777 68.1562 8.4082 64.5671 8.4082C60.9781 8.4082 57.8239 9.65226 55.1872 12.0743C52.622 14.4909 51.3008 18.157 51.3008 23.1443V36.4766C51.3008 34.539 52.8752 32.9646 54.8183 32.9646C56.7615 32.9646 58.3358 34.539 58.3358 36.4821" fill="white"/>
<path d="M57.2739 38.9387C58.655 37.5598 58.6726 35.3378 57.313 33.9759C55.9539 32.614 53.7316 32.6277 52.3505 34.0066C50.969 35.3855 50.9514 37.6074 52.3109 38.9694C53.6705 40.3314 55.8928 40.3176 57.2739 38.9387Z" fill="#D90B3D"/>
</svg>
