<svg width="48" height="48" viewBox="0 0 48 48" fill="none" xmlns="http://www.w3.org/2000/svg">
<path fill-rule="evenodd" clip-rule="evenodd" d="M24 0.251953C23.7145 0.653852 23.426 1.05342 23.1343 1.45064C17.0651 9.71667 9.66489 16.9627 1.22286 22.9053C0.817623 23.1905 0.409998 23.4727 0 23.752C0.409907 24.0313 0.817454 24.3136 1.2226 24.599C9.66272 30.544 17.0626 37.7897 23.1342 46.0538C23.4258 46.4509 23.7144 46.8503 24 47.252C24.2853 46.8502 24.5736 46.4505 24.8651 46.0534C30.9318 37.7853 38.3324 30.539 46.7763 24.5987C47.1819 24.3135 47.5897 24.0312 48 23.752C47.5896 23.4729 47.1816 23.1908 46.776 22.9056C38.3301 16.9677 30.9294 9.72106 24.865 1.45116C24.5735 1.05378 24.2852 0.654031 24 0.251953ZM23.9993 2.63691C17.9872 10.7402 10.7091 17.8661 2.4325 23.7523C10.7073 29.6407 17.985 36.7664 23.9993 44.8681C30.0088 36.7627 37.2871 29.6364 45.5654 23.7523C37.2853 17.8704 30.0066 10.7439 23.9993 2.63691Z" fill="url(#paint0_linear_986_65)"/>
<defs>
<linearGradient id="paint0_linear_986_65" x1="0" y1="23.752" x2="48" y2="23.752" gradientUnits="userSpaceOnUse">
<stop stop-color="#FFD53E"/>
<stop offset="1" stop-color="white"/>
</linearGradient>
</defs>
</svg>
